<?xml version="1.0" standalone="no"?>
<!DOCTYPE svg PUBLIC "-//W3C//DTD SVG 20010904//EN"
 "http://www.w3.org/TR/2001/REC-SVG-20010904/DTD/svg10.dtd">
<svg version="1.0" xmlns="http://www.w3.org/2000/svg"
 width="200.000000pt" height="200.000000pt" viewBox="0 0 200.000000 200.000000"
 preserveAspectRatio="xMidYMid meet">
<metadata>
Created by potrace 1.14, written by Peter Selinger 2001-2017
</metadata>
<g transform="translate(0.000000,200.000000) scale(0.100000,-0.100000)"
fill="#000000" stroke="none">
<path d="M984 1402 l-110 -3 -22 -44 -22 -45 -65 0 c-59 0 -65 2 -65 21 0 18
-5 20 -42 17 -30 -2 -43 -8 -43 -18 0 -11 -16 -17 -63 -21 -69 -6 -99 -26
-104 -69 l-3 -25 205 -3 c162 -2 213 1 249 13 57 19 145 19 202 0 36 -12 87
-15 249 -13 l205 3 -3 25 c-1 14 -12 34 -23 45 -18 18 -35 20 -190 23 l-170 3
-21 44 c-12 24 -28 45 -37 47 -9 2 -66 2 -127 0z m84 -59 c-3 -27 -5 -28 -68
-28 -63 0 -65 1 -68 28 l-3 27 71 0 71 0 -3 -27z m-348 -93 c0 -5 -4 -10 -10
-10 -5 0 -10 5 -10 10 0 6 5 10 10 10 6 0 10 -4 10 -10z m48 -1 c-2 -6 -8 -10
-13 -10 -5 0 -11 4 -13 10 -2 6 4 11 13 11 9 0 15 -5 13 -11z"/>
<path d="M955 1220 c-59 -10 -89 -25 -136 -67 -59 -53 -89 -121 -89 -203 1
-156 115 -270 270 -270 155 0 269 114 270 270 0 171 -147 297 -315 270z m133
-56 c153 -63 191 -267 71 -381 -146 -138 -388 -36 -389 165 0 130 99 231 228
232 29 0 69 -7 90 -16z"/>
<path d="M907 1119 c-85 -45 -121 -163 -77 -254 62 -128 249 -141 328 -22 23
34 27 52 27 107 0 56 -4 73 -28 109 -51 76 -167 104 -250 60z m155 -107 c67
-57 -10 -176 -92 -142 -39 16 -57 52 -58 112 -2 66 20 81 86 60 26 -8 55 -22
64 -30z m58 -157 c0 -8 -7 -15 -15 -15 -16 0 -20 12 -8 23 11 12 23 8 23 -8z"/>
<path d="M1000 1011 c0 -23 -23 -43 -53 -45 -30 -1 -32 -29 -4 -62 33 -37 81
-38 114 0 31 36 29 61 -6 97 -34 33 -51 37 -51 10z"/>
<path d="M447 1183 c-3 -5 -4 -111 -3 -238 l1 -230 189 -3 188 -2 -40 45 c-97
110 -97 280 0 389 l40 46 -186 0 c-101 0 -187 -3 -189 -7z"/>
<path d="M1218 1145 c97 -110 97 -280 0 -390 l-40 -45 188 2 189 3 0 235 0
235 -189 3 -188 2 40 -45z m256 19 c9 -3 16 -17 16 -30 0 -23 -3 -24 -70 -24
-68 0 -70 1 -70 24 0 22 5 25 48 29 26 2 50 4 54 5 3 1 13 -1 22 -4z"/>
<path d="M445 663 c16 -67 -16 -63 555 -63 571 0 539 -4 555 63 l7 27 -210 0
c-161 0 -219 -3 -252 -15 -23 -8 -68 -15 -100 -15 -32 0 -77 7 -100 15 -33 12
-91 15 -252 15 l-210 0 7 -27z"/>
</g>
</svg>
